<?xml version="1.0" standalone="no"?>
<!DOCTYPE svg PUBLIC "-//W3C//DTD SVG 20010904//EN"
 "http://www.w3.org/TR/2001/REC-SVG-20010904/DTD/svg10.dtd">
<svg version="1.0" xmlns="http://www.w3.org/2000/svg"
 width="476.000000pt" height="476.000000pt" viewBox="0 0 476.000000 476.000000"
 preserveAspectRatio="xMidYMid meet">
<metadata>
Created by potrace 1.11, written by Peter Selinger 2001-2013
</metadata>
<g transform="translate(0.000000,476.000000) scale(0.100000,-0.100000)"
fill="#000000" stroke="none">
<path d="M2151 4010 c-475 -67 -888 -354 -1125 -784 l-51 -92 -75 43 c-41 23
-81 40 -88 38 -7 -3 -10 -1 -7 4 5 9 -164 111 -184 111 -5 0 -11 4 -13 8 -1 4
-20 18 -41 30 -40 23 -127 31 -127 11 0 -5 -4 -7 -10 -4 -15 9 -58 -39 -68
-77 -10 -40 3 -101 28 -123 36 -32 202 -125 214 -118 6 3 8 2 3 -2 -10 -11
140 -98 155 -89 6 4 8 3 5 -3 -6 -9 84 -66 99 -63 4 1 10 -3 13 -8 7 -11 171
-109 198 -119 10 -3 32 -16 48 -28 17 -12 66 -41 110 -66 44 -24 92 -51 106
-59 14 -8 64 -37 112 -64 47 -27 84 -53 82 -57 -3 -4 -78 -49 -167 -99 -90
-51 -174 -101 -188 -110 -14 -10 -81 -49 -151 -87 -69 -39 -136 -77 -149 -84
-46 -26 -69 -46 -62 -54 4 -5 1 -5 -6 -1 -7 4 -37 -7 -70 -27 -31 -19 -87 -50
-124 -71 -37 -20 -75 -44 -84 -54 -10 -9 -18 -15 -19 -12 -2 8 -75 -33 -75
-42 0 -5 -6 -8 -13 -8 -21 0 -57 -44 -68 -83 -20 -75 45 -157 126 -157 31 0
76 22 224 106 260 149 272 156 276 152 1 -2 17 -32 35 -68 79 -157 244 -358
391 -476 291 -232 639 -347 1008 -331 256 11 481 73 691 192 245 138 479 379
602 620 23 47 49 85 56 85 6 0 12 -4 12 -8 0 -13 50 -33 62 -26 7 5 8 2 3 -6
-6 -10 -4 -12 8 -7 9 3 16 2 14 -3 -4 -17 344 -212 389 -217 103 -13 178 97
127 185 -20 36 -108 96 -125 86 -7 -5 -8 -3 -3 6 6 10 4 12 -11 6 -10 -4 -15
-4 -11 0 11 11 -81 66 -96 58 -7 -4 -9 -3 -4 1 9 11 -140 98 -153 90 -6 -4 -9
-1 -8 5 2 6 -21 24 -49 40 -29 16 -53 26 -53 22 0 -4 -4 -2 -8 4 -7 11 -145
93 -352 210 -52 30 -102 58 -110 64 -35 22 -146 86 -162 92 -25 10 -22 27 7
40 13 6 22 15 18 21 -3 6 -1 7 5 3 6 -3 35 8 64 25 29 18 78 46 108 62 30 17
84 48 120 70 36 22 75 45 87 52 13 7 20 15 16 19 -4 4 1 4 11 0 15 -6 17 -4
11 6 -5 9 -4 11 4 6 6 -4 23 1 39 12 15 11 126 76 247 145 379 216 381 217
408 259 19 30 23 98 6 98 -5 0 -8 4 -5 9 9 14 -30 57 -64 71 -55 23 -113 4
-255 -83 -11 -7 -43 -27 -72 -44 -30 -18 -55 -33 -58 -33 -2 0 -28 -14 -57
-31 -77 -46 -118 -69 -123 -69 -2 0 -20 33 -40 73 -69 136 -146 239 -275 368
-219 220 -456 351 -759 420 -99 23 -421 34 -530 19z m99 -544 l0 -335 -37 5
c-156 22 -310 67 -428 126 -79 40 -210 126 -260 171 l-40 37 35 30 c52 46 185
133 267 174 122 61 336 123 431 125 l32 1 0 -334z m342 319 c212 -37 462 -154
613 -287 l36 -31 -33 -29 c-96 -83 -266 -182 -406 -235 -85 -32 -257 -73 -304
-73 l-38 0 0 335 0 335 24 0 c13 0 62 -7 108 -15z m-1179 -544 c215 -176 519
-298 802 -323 l30 -3 3 -152 3 -153 -189 0 c-103 0 -192 4 -197 9 -6 5 -32 21
-60 36 -86 46 -537 307 -587 338 -27 17 -48 33 -48 35 0 24 152 272 166 272 2
0 37 -27 77 -59z m2035 -14 c26 -40 63 -104 82 -141 30 -57 33 -68 20 -76 -25
-16 -92 -55 -360 -208 -140 -80 -272 -156 -293 -169 -36 -23 -42 -23 -235 -21
l-197 3 -3 147 c-3 169 -14 151 103 163 151 15 358 82 521 169 93 49 227 142
265 182 12 13 29 24 36 24 7 0 35 -33 61 -73z m-2393 -427 c3 -6 -1 -7 -9 -4
-18 7 -21 14 -7 14 6 0 13 -4 16 -10z m1195 -549 l0 -150 -47 -6 c-319 -42
-567 -146 -802 -334 -35 -28 -67 -48 -71 -46 -15 9 -96 137 -128 202 -36 69
-38 64 53 114 33 18 78 44 100 58 22 14 53 31 68 38 18 8 26 17 21 24 -4 8 -3
9 5 5 6 -4 17 -3 24 2 7 5 37 23 67 39 30 17 123 69 205 117 l150 86 178 0
177 0 0 -149z m847 23 c120 -69 244 -141 276 -160 32 -19 63 -31 69 -28 6 4 8
3 5 -2 -3 -6 21 -25 54 -43 32 -18 59 -37 59 -42 0 -28 -153 -289 -170 -289
-3 0 -30 20 -60 45 -229 189 -497 299 -822 340 l-48 6 0 143 c0 78 3 146 7
149 3 4 98 7 209 7 l203 0 218 -126z m-847 -729 c0 -288 -2 -335 -15 -335 -39
0 -222 42 -306 70 -138 46 -292 132 -405 228 l-39 33 45 41 c100 90 267 184
415 233 78 27 237 62 283 64 l22 1 0 -335z m329 320 c108 -19 232 -57 327
-100 76 -35 241 -139 302 -192 l33 -28 -63 -51 c-126 -102 -279 -183 -428
-227 -84 -26 -234 -57 -271 -57 -18 0 -19 13 -19 335 0 312 1 335 18 335 9 0
55 -7 101 -15z"/>
</g>
</svg>
